<?xml version="1.0" encoding="UTF-8"?>
<svg width="1024" height="1024" viewBox="0 0 1024 1024" fill="none" xmlns="http://www.w3.org/2000/svg">
  <defs>
    <filter id="noise">
      <feTurbulence type="fractalNoise" baseFrequency="0.9" numOctaves="4" result="noise"/>
      <feColorMatrix type="saturate" values="0"/>
      <feComponentTransfer>
        <feFuncR type="linear" slope="0.03" intercept="0"/>
        <feFuncG type="linear" slope="0.03" intercept="0"/>
        <feFuncB type="linear" slope="0.03" intercept="0"/>
        <feFuncA type="linear" slope="0.15" intercept="0"/>
      </feComponentTransfer>
      <feBlend in="SourceGraphic" mode="overlay"/>
    </filter>

    <linearGradient id="borderGradient" x1="0%" y1="0%" x2="100%" y2="100%">
      <stop offset="0%" style="stop-color:#3f3f46;stop-opacity:0.6" />
      <stop offset="100%" style="stop-color:#27272a;stop-opacity:0.3" />
    </linearGradient>
  </defs>

  <!-- Background: Daintree surface-canvas -->
  <rect x="0" y="0" width="1024" height="1024" rx="229" ry="229" fill="#19191a"/>
  <rect x="0" y="0" width="1024" height="1024" rx="229" ry="229" fill="#19191a" filter="url(#noise)"/>
  <rect x="4" y="4" width="1016" height="1016" rx="225" ry="225" fill="none" stroke="url(#borderGradient)" stroke-width="2"/>

  <!-- Canopy mark: Daintree accent-primary, 75% fill, optically centered -->
  <g fill="#3F9366" transform="translate(128 131.177) scale(3.2738)">
    <g transform="translate(-810.597656 -765.9375)">
      <path fill-rule="nonzero" d="M 1045.1875 910.820312 L 1022.570312 910.820312 L 1022.570312 864.34375 C 1022.570312 848.984375 1014.304688 834.671875 1001.003906 826.992188 L 949.457031 797.230469 C 936.15625 789.554688 919.628906 789.550781 906.328125 797.230469 L 854.78125 826.992188 C 841.480469 834.671875 833.21875 848.984375 833.21875 864.34375 L 833.21875 910.820312 L 810.597656 910.820312 L 810.597656 864.34375 C 810.597656 840.929688 823.195312 819.109375 843.472656 807.402344 L 895.019531 777.640625 C 915.296875 765.9375 940.488281 765.9375 960.765625 777.640625 L 1012.316406 807.402344 C 1032.59375 819.109375 1045.1875 840.929688 1045.1875 864.34375 Z"/>
      <path fill-rule="nonzero" d="M 939.203125 992.472656 L 916.585938 992.472656 L 916.585938 833.746094 L 939.203125 833.746094 Z"/>
      <path fill-rule="nonzero" d="M 854.058594 956.375 L 842.75 936.785156 L 851.523438 931.714844 C 858.96875 927.421875 863.589844 919.410156 863.589844 910.820312 L 863.589844 864.34375 L 886.210938 864.34375 L 886.210938 910.820312 C 886.210938 927.46875 877.253906 942.980469 862.835938 951.304688 Z"/>
      <path fill-rule="nonzero" d="M 1001.726562 956.375 L 992.949219 951.304688 C 978.53125 942.980469 969.574219 927.46875 969.574219 910.820312 L 969.574219 864.34375 L 992.195312 864.34375 L 992.195312 910.820312 C 992.195312 919.410156 996.820312 927.421875 1004.261719 931.714844 L 1013.039062 936.785156 Z"/>
    </g>
  </g>
</svg>
