<?xml version="1.0" encoding="UTF-8"?>
<svg width="1024" height="1024" viewBox="0 0 1024 1024" fill="none" xmlns="http://www.w3.org/2000/svg">
  <defs>
    <filter id="noise">
      <feTurbulence type="fractalNoise" baseFrequency="0.9" numOctaves="4" result="noise"/>
      <feColorMatrix type="saturate" values="0"/>
      <feComponentTransfer>
        <feFuncR type="linear" slope="0.03" intercept="0"/>
        <feFuncG type="linear" slope="0.03" intercept="0"/>
        <feFuncB type="linear" slope="0.03" intercept="0"/>
        <feFuncA type="linear" slope="0.15" intercept="0"/>
      </feComponentTransfer>
      <feBlend in="SourceGraphic" mode="overlay"/>
    </filter>

    <linearGradient id="borderGradient" x1="0%" y1="0%" x2="100%" y2="100%">
      <stop offset="0%" style="stop-color:#3f3f46;stop-opacity:0.6" />
      <stop offset="100%" style="stop-color:#27272a;stop-opacity:0.3" />
    </linearGradient>

    <!-- Directional lighting gradient for cube edges (light from top-left) -->
    <linearGradient id="cubeGradient" x1="0.15" y1="0" x2="0.85" y2="1">
      <stop offset="0%" stop-color="#ffffff"/>
      <stop offset="100%" stop-color="#b8b8c0"/>
    </linearGradient>
  </defs>

  <!-- Background with macOS corner radius -->
  <rect x="0" y="0" width="1024" height="1024" rx="229" ry="229" fill="#18181b"/>
  <rect x="0" y="0" width="1024" height="1024" rx="229" ry="229" fill="#18181b" filter="url(#noise)"/>
  <rect x="4" y="4" width="1016" height="1016" rx="225" ry="225" fill="none" stroke="url(#borderGradient)" stroke-width="2"/>

  <!-- Logo group - optically centered (74% fill per Apple large keyline, nudged up 10px) -->
  <g transform="translate(185, 124) scale(4.414)">
    <!-- Face fills matching CanopyIcon.tsx (exact face polygons, no inner cutout bleed) -->
    <polygon points="74.165,11.2871 133.6674,45.6411 108.1701,60.3628 74.165,40.7305 40.1601,60.3628 14.663,45.6411" fill="#3f3f46"/>
    <polygon points="9.7754,54.1064 35.2725,68.8281 45.0479,74.4717 69.2774,88.46 69.2774,157.1675 9.7754,122.8135" fill="#2d2d33"/>
    <polygon points="138.5549,54.1064 113.0576,68.8281 113.0576,108.0918 79.0527,127.7241 79.0527,157.1675 138.5549,122.8135" fill="#232328"/>

    <!-- Cube outline with directional gradient -->
    <path
      d="M74.165,0L0,42.8188v85.6382l74.165,42.8193,74.1653-42.8193V42.8188L74.165,0ZM74.165,11.2871l59.5024,34.354-25.4973,14.7217-34.0051-19.6323-34.0049,19.6323-25.4971-14.7217L74.165,11.2871ZM79.0527,88.46v-5.4287l-4.8877-3.0366-4.8877-2.8218-19.3418-11.1665,24.2295-13.9888,24.2297,13.9888,4.8877,2.8218v33.6201l-24.2297,13.9888v-27.9771ZM9.7754,54.1064l25.4971,14.7217,9.7754,5.6436,24.2295,13.9883v68.7075L9.7754,122.8135V54.1064ZM138.5549,122.8135l-59.5022,34.354v-29.4434l34.0049-19.6323v-39.2637l25.4973-14.7217v68.707Z"
      fill="url(#cubeGradient)"
    />
  </g>
</svg>
