<?xml version="1.0" encoding="UTF-8"?>
<svg width="1024" height="1024" viewBox="0 0 1024 1024" fill="none" xmlns="http://www.w3.org/2000/svg">
  <defs>
    <filter id="noise">
      <feTurbulence type="fractalNoise" baseFrequency="0.9" numOctaves="4" result="noise"/>
      <feColorMatrix type="saturate" values="0"/>
      <feComponentTransfer>
        <feFuncR type="linear" slope="0.03" intercept="0"/>
        <feFuncG type="linear" slope="0.03" intercept="0"/>
        <feFuncB type="linear" slope="0.03" intercept="0"/>
        <feFuncA type="linear" slope="0.15" intercept="0"/>
      </feComponentTransfer>
      <feBlend in="SourceGraphic" mode="overlay"/>
    </filter>

    <linearGradient id="borderGradient" x1="0%" y1="0%" x2="100%" y2="100%">
      <stop offset="0%" style="stop-color:#3f3f46;stop-opacity:0.6" />
      <stop offset="100%" style="stop-color:#27272a;stop-opacity:0.3" />
    </linearGradient>
  </defs>

  <!-- Background: Daintree surface-canvas -->
  <rect x="0" y="0" width="1024" height="1024" rx="229" ry="229" fill="#151616"/>
  <rect x="0" y="0" width="1024" height="1024" rx="229" ry="229" fill="#151616" filter="url(#noise)"/>
  <rect x="4" y="4" width="1016" height="1016" rx="225" ry="225" fill="none" stroke="url(#borderGradient)" stroke-width="2"/>

  <!-- Canopy mark: 70% fill, optically centered -->
  <g fill="#36CE94" transform="translate(153.60, 239.36) scale(4.0428)">
    <path d="M95.92,132.85h-14.52c-.59,0-1.07-.48-1.07-1.07V36.42c0-.74.27-1.46.77-1.99,2.04-2.17,4.79-3.25,7.55-3.25s5.52,1.09,7.55,3.26c.5.54.77,1.26.77,1.99v95.35c0,.59-.47,1.07-1.07,1.07Z"/>
    <path d="M177.31,70.43v19.64c0,.59-.48,1.07-1.07,1.07h-14.52c-.59,0-1.07-.48-1.07-1.07v-19.67c0-10.29-5.49-19.81-14.41-24.95l-43.18-24.93c-8.92-5.15-19.9-5.15-28.82,0l-43.18,24.93c-8.92,5.15-14.41,14.66-14.41,24.95v17.75c0,.06,0,.13,0,2.14,0,.59-.48,1.07-1.07,1.07H1.07c-.59,0-1.07-.48-1.07-1.07v-19.86c0-16.27,8.68-31.3,22.76-39.43L65.89,6.1c14.09-8.13,31.44-8.13,45.53,0l43.12,24.89c14.09,8.13,22.77,23.17,22.77,39.44Z"/>
    <path d="M63.66,90.05v27.19c0,.59-.48,1.07-1.07,1.07h-14.52c-.59,0-1.07-.48-1.07-1.07v-27.17c0-5.9-3.15-11.34-8.26-14.3l-5.83-3.37c-.66-.38-1.15-1-1.36-1.73s-.41-1.76-.41-2.89c0-4.68,3.21-8.98,7.99-10.11.72-.17,1.48-.05,2.13.32l5.84,3.36c10.25,5.92,16.56,16.85,16.56,28.69Z"/>
    <path d="M113.65,90.05v27.19c0,.59.48,1.07,1.07,1.07h14.52c.59,0,1.07-.48,1.07-1.07v-27.17c0-5.9,3.15-11.34,8.26-14.3l5.83-3.37c.66-.38,1.15-1,1.36-1.73s.41-1.76.41-2.89c0-4.68-3.21-8.98-7.99-10.11-.72-.17-1.48-.05-2.13.32l-5.84,3.36c-10.25,5.92-16.56,16.85-16.56,28.69Z"/>
  </g>
</svg>
