<?xml version="1.0" encoding="UTF-8"?>
<svg width="1024" height="1024" viewBox="0 0 1024 1024" fill="none" xmlns="http://www.w3.org/2000/svg">
  <defs>
    <filter id="noise">
      <feTurbulence type="fractalNoise" baseFrequency="0.9" numOctaves="4" result="noise"/>
      <feColorMatrix type="saturate" values="0"/>
      <feComponentTransfer>
        <feFuncR type="linear" slope="0.03" intercept="0"/>
        <feFuncG type="linear" slope="0.03" intercept="0"/>
        <feFuncB type="linear" slope="0.03" intercept="0"/>
        <feFuncA type="linear" slope="0.15" intercept="0"/>
      </feComponentTransfer>
      <feBlend in="SourceGraphic" mode="overlay"/>
    </filter>

    <linearGradient id="borderGradient" x1="0%" y1="0%" x2="100%" y2="100%">
      <stop offset="0%" style="stop-color:#3f3f46;stop-opacity:0.6" />
      <stop offset="100%" style="stop-color:#27272a;stop-opacity:0.3" />
    </linearGradient>
  </defs>

  <!-- Background: Daintree surface-canvas -->
  <rect x="0" y="0" width="1024" height="1024" rx="229" ry="229" fill="#151616"/>
  <rect x="0" y="0" width="1024" height="1024" rx="229" ry="229" fill="#151616" filter="url(#noise)"/>
  <rect x="4" y="4" width="1016" height="1016" rx="225" ry="225" fill="none" stroke="url(#borderGradient)" stroke-width="2"/>

  <!-- Canopy mark: 70% fill, optically centered -->
  <g fill="#36CE94" transform="translate(165.63 230) scale(2.1)">
    <path d="M287.519 61.449C313.73 76.582 329.877 104.548 329.877 134.813V168.191C329.877 176.651 323.102 183.529 314.678 183.688C305.989 183.847 298.881 176.474 298.881 167.785V134.754C298.881 115.602 288.663 97.904 272.077 88.328L191.739 41.944C175.153 32.367 154.715 32.367 138.129 41.944L57.797 88.327C41.212 97.904 30.995 115.601 30.995 134.753V167.785C30.995 176.474 23.887 183.847 15.206 183.688C6.783 183.529 0 176.651 0 168.191V134.821C0 104.557 16.147 76.591 42.355 61.458L122.584 15.135C148.795 0.001 181.09 0 207.302 15.134Z"/>
    <path d="M164.939 260.984C156.379 260.984 149.44 254.045 149.44 245.485V76.326C149.44 67.766 156.379 60.827 164.939 60.827C173.499 60.827 180.438 67.766 180.438 76.326V245.485C180.438 254.045 173.499 260.984 164.939 260.984Z"/>
    <path d="M118.441 171.328V218.458C118.441 227.03 111.58 234.151 103.008 234.186C98.703 234.204 94.8 232.465 91.982 229.647C89.178 226.844 87.443 222.968 87.443 218.689V171.378C87.443 160.403 81.586 150.262 72.08 144.776L64.197 140.227C56.785 135.948 54.243 126.47 58.523 119.055C61.394 114.083 66.602 111.302 71.959 111.302C74.59 111.302 77.254 111.974 79.695 113.383L87.618 117.955C106.691 128.961 118.441 149.308 118.441 171.328Z"/>
    <path d="M211.445 171.328V218.458C211.445 227.03 218.306 234.151 226.878 234.186C231.183 234.204 235.086 232.465 237.904 229.647C240.708 226.844 242.443 222.968 242.443 218.689V171.378C242.443 160.403 248.3 150.262 257.806 144.776L265.689 140.227C273.101 135.948 275.643 126.47 271.363 119.055C268.492 114.083 263.284 111.302 257.927 111.302C255.296 111.302 252.632 111.974 250.191 113.383L242.268 117.955C223.195 128.961 211.445 149.308 211.445 171.328Z"/>
  </g>
</svg>
